<svg id="visual" viewBox="0 0 960 540" width="960" height="540" xmlns="http://www.w3.org/2000/svg" xmlns:xlink="http://www.w3.org/1999/xlink" version="1.1"><g stroke-width="1" stroke-linejoin="bevel"><path d="M399.7 273L349 305L430.7 338Z" fill="#f6f6f6" stroke="#f6f6f6"></path><path d="M349 305L305 367L430.7 338Z" fill="#efeff0" stroke="#efeff0"></path><path d="M305 367L325 427L430.7 338Z" fill="#f8f8f8" stroke="#f8f8f8"></path><path d="M555.3 233L444.7 189L399.7 273Z" fill="#fdfdfd" stroke="#fdfdfd"></path><path d="M399.7 273L302 183L349 305Z" fill="#ffffff" stroke="#ffffff"></path><path d="M325 427L464.7 438L430.7 338Z" fill="#fbfbfb" stroke="#fbfbfb"></path><path d="M430.7 338L555.3 233L399.7 273Z" fill="#f4f4f4" stroke="#f4f4f4"></path><path d="M349 305L250.3 326L305 367Z" fill="#ededee" stroke="#ededee"></path><path d="M305 367L188.3 464L325 427Z" fill="#f1f1f1" stroke="#f1f1f1"></path><path d="M218.3 236L250.3 326L349 305Z" fill="#f6f6f6" stroke="#f6f6f6"></path><path d="M444.7 189L302 183L399.7 273Z" fill="#fafafa" stroke="#fafafa"></path><path d="M531.3 422L558.3 327L430.7 338Z" fill="#f8f8f8" stroke="#f8f8f8"></path><path d="M464.7 438L531.3 422L430.7 338Z" fill="#fdfdfd" stroke="#fdfdfd"></path><path d="M558.3 327L555.3 233L430.7 338Z" fill="#f4f4f4" stroke="#f4f4f4"></path><path d="M555.3 233L537.3 203L444.7 189Z" fill="#fbfbfb" stroke="#fbfbfb"></path><path d="M302 183L218.3 236L349 305Z" fill="#ededee" stroke="#ededee"></path><path d="M302 183L212.3 217L218.3 236Z" fill="#ededee" stroke="#ededee"></path><path d="M537.3 203L457.7 104L444.7 189Z" fill="#ffffff" stroke="#ffffff"></path><path d="M444.7 189L344 63L302 183Z" fill="#f2f2f3" stroke="#f2f2f3"></path><path d="M302 183L199.3 67L212.3 217Z" fill="#f8f8f8" stroke="#f8f8f8"></path><path d="M325 427L415.7 540L464.7 438Z" fill="#f2f2f3" stroke="#f2f2f3"></path><path d="M464.7 438L519.3 540L531.3 422Z" fill="#ffffff" stroke="#ffffff"></path><path d="M227.3 540L357 540L325 427Z" fill="#f8f8f8" stroke="#f8f8f8"></path><path d="M325 427L357 540L415.7 540Z" fill="#f2f2f3" stroke="#f2f2f3"></path><path d="M119.7 422L188.3 464L250.3 326Z" fill="#fbfbfb" stroke="#fbfbfb"></path><path d="M250.3 326L188.3 464L305 367Z" fill="#efeff0" stroke="#efeff0"></path><path d="M119.7 422L250.3 326L97.7 341Z" fill="#f4f4f4" stroke="#f4f4f4"></path><path d="M665 383L648 307L558.3 327Z" fill="#fdfdfd" stroke="#fdfdfd"></path><path d="M558.3 327L648 307L555.3 233Z" fill="#f1f1f1" stroke="#f1f1f1"></path><path d="M555.3 233L621 166L537.3 203Z" fill="#fbfbfb" stroke="#fbfbfb"></path><path d="M537.3 203L570.3 92L457.7 104Z" fill="#ffffff" stroke="#ffffff"></path><path d="M665 383L558.3 327L531.3 422Z" fill="#f8f8f8" stroke="#f8f8f8"></path><path d="M415.7 540L519.3 540L464.7 438Z" fill="#f4f4f4" stroke="#f4f4f4"></path><path d="M457.7 104L344 63L444.7 189Z" fill="#f2f2f3" stroke="#f2f2f3"></path><path d="M648 307L621 166L555.3 233Z" fill="#ffffff" stroke="#ffffff"></path><path d="M188.3 464L227.3 540L325 427Z" fill="#f8f8f8" stroke="#f8f8f8"></path><path d="M663 439L665 383L531.3 422Z" fill="#f8f8f8" stroke="#f8f8f8"></path><path d="M724.7 197L619 90L621 166Z" fill="#f8f8f8" stroke="#f8f8f8"></path><path d="M621 166L570.3 92L537.3 203Z" fill="#f1f1f1" stroke="#f1f1f1"></path><path d="M457.7 104L426.7 0L344 63Z" fill="#f4f4f4" stroke="#f4f4f4"></path><path d="M97.7 341L250.3 326L218.3 236Z" fill="#f1f1f1" stroke="#f1f1f1"></path><path d="M188.3 464L131.7 540L227.3 540Z" fill="#ededee" stroke="#ededee"></path><path d="M74.7 281L97.7 341L218.3 236Z" fill="#fdfdfd" stroke="#fdfdfd"></path><path d="M74.7 281L218.3 236L212.3 217Z" fill="#fdfdfd" stroke="#fdfdfd"></path><path d="M630 540L663 439L531.3 422Z" fill="#f8f8f8" stroke="#f8f8f8"></path><path d="M344 63L199.3 67L302 183Z" fill="#f1f1f1" stroke="#f1f1f1"></path><path d="M535.3 0L426.7 0L457.7 104Z" fill="#fdfdfd" stroke="#fdfdfd"></path><path d="M344 63L311 0L199.3 67Z" fill="#fafafa" stroke="#fafafa"></path><path d="M97.7 149L74.7 281L212.3 217Z" fill="#f2f2f3" stroke="#f2f2f3"></path><path d="M0 540L131.7 540L119.7 422Z" fill="#fafafa" stroke="#fafafa"></path><path d="M621 166L619 90L570.3 92Z" fill="#fafafa" stroke="#fafafa"></path><path d="M570.3 92L535.3 0L457.7 104Z" fill="#ededee" stroke="#ededee"></path><path d="M722.7 239L621 166L648 307Z" fill="#f4f4f4" stroke="#f4f4f4"></path><path d="M519.3 540L630 540L531.3 422Z" fill="#f1f1f1" stroke="#f1f1f1"></path><path d="M426.7 0L311 0L344 63Z" fill="#f8f8f8" stroke="#f8f8f8"></path><path d="M199.3 67L97.7 149L212.3 217Z" fill="#efeff0" stroke="#efeff0"></path><path d="M744.7 336L648 307L665 383Z" fill="#f1f1f1" stroke="#f1f1f1"></path><path d="M744.7 336L722.7 239L648 307Z" fill="#fbfbfb" stroke="#fbfbfb"></path><path d="M119.7 422L131.7 540L188.3 464Z" fill="#f4f4f4" stroke="#f4f4f4"></path><path d="M0 419L119.7 422L97.7 341Z" fill="#f2f2f3" stroke="#f2f2f3"></path><path d="M602 0L535.3 0L570.3 92Z" fill="#f4f4f4" stroke="#f4f4f4"></path><path d="M663 439L744.7 336L665 383Z" fill="#fafafa" stroke="#fafafa"></path><path d="M778.7 487L744.7 336L663 439Z" fill="#f2f2f3" stroke="#f2f2f3"></path><path d="M722.7 239L724.7 197L621 166Z" fill="#f6f6f6" stroke="#f6f6f6"></path><path d="M619 90L602 0L570.3 92Z" fill="#fbfbfb" stroke="#fbfbfb"></path><path d="M814.3 170L724.7 197L722.7 239Z" fill="#f2f2f3" stroke="#f2f2f3"></path><path d="M0 270L0 351L74.7 281Z" fill="#f8f8f8" stroke="#f8f8f8"></path><path d="M199.3 67L105.7 100L97.7 149Z" fill="#ffffff" stroke="#ffffff"></path><path d="M136.7 0L105.7 100L199.3 67Z" fill="#efeff0" stroke="#efeff0"></path><path d="M311 0L217.3 0L199.3 67Z" fill="#fdfdfd" stroke="#fdfdfd"></path><path d="M727.7 56L602 0L619 90Z" fill="#f8f8f8" stroke="#f8f8f8"></path><path d="M0 270L74.7 281L0 151Z" fill="#fdfdfd" stroke="#fdfdfd"></path><path d="M74.7 281L0 351L97.7 341Z" fill="#f2f2f3" stroke="#f2f2f3"></path><path d="M0 151L74.7 281L97.7 149Z" fill="#efeff0" stroke="#efeff0"></path><path d="M0 351L0 419L97.7 341Z" fill="#f4f4f4" stroke="#f4f4f4"></path><path d="M217.3 0L136.7 0L199.3 67Z" fill="#fbfbfb" stroke="#fbfbfb"></path><path d="M105.7 100L0 151L97.7 149Z" fill="#f2f2f3" stroke="#f2f2f3"></path><path d="M768.7 540L778.7 487L663 439Z" fill="#f4f4f4" stroke="#f4f4f4"></path><path d="M814.3 170L727.7 56L724.7 197Z" fill="#efeff0" stroke="#efeff0"></path><path d="M836.3 269L722.7 239L744.7 336Z" fill="#fdfdfd" stroke="#fdfdfd"></path><path d="M724.7 197L727.7 56L619 90Z" fill="#f2f2f3" stroke="#f2f2f3"></path><path d="M0 76L0 151L105.7 100Z" fill="#f6f6f6" stroke="#f6f6f6"></path><path d="M630 540L768.7 540L663 439Z" fill="#f8f8f8" stroke="#f8f8f8"></path><path d="M847.3 449L744.7 336L778.7 487Z" fill="#f8f8f8" stroke="#f8f8f8"></path><path d="M888.3 370L836.3 269L744.7 336Z" fill="#f2f2f3" stroke="#f2f2f3"></path><path d="M836.3 269L814.3 170L722.7 239Z" fill="#f2f2f3" stroke="#f2f2f3"></path><path d="M0 419L0 540L119.7 422Z" fill="#fafafa" stroke="#fafafa"></path><path d="M0 0L0 76L105.7 100Z" fill="#f4f4f4" stroke="#f4f4f4"></path><path d="M820.3 0L744.7 0L727.7 56Z" fill="#f6f6f6" stroke="#f6f6f6"></path><path d="M727.7 56L744.7 0L602 0Z" fill="#f8f8f8" stroke="#f8f8f8"></path><path d="M822.3 540L847.3 449L778.7 487Z" fill="#fbfbfb" stroke="#fbfbfb"></path><path d="M768.7 540L822.3 540L778.7 487Z" fill="#fbfbfb" stroke="#fbfbfb"></path><path d="M847.3 449L888.3 370L744.7 336Z" fill="#f1f1f1" stroke="#f1f1f1"></path><path d="M960 210L884.3 115L814.3 170Z" fill="#fdfdfd" stroke="#fdfdfd"></path><path d="M960 321L888.3 370L960 456Z" fill="#efeff0" stroke="#efeff0"></path><path d="M136.7 0L0 0L105.7 100Z" fill="#f2f2f3" stroke="#f2f2f3"></path><path d="M960 210L814.3 170L836.3 269Z" fill="#fafafa" stroke="#fafafa"></path><path d="M814.3 170L884.3 115L727.7 56Z" fill="#f1f1f1" stroke="#f1f1f1"></path><path d="M884.3 115L820.3 0L727.7 56Z" fill="#f4f4f4" stroke="#f4f4f4"></path><path d="M960 456L888.3 370L847.3 449Z" fill="#f8f8f8" stroke="#f8f8f8"></path><path d="M888.3 370L960 296L836.3 269Z" fill="#efeff0" stroke="#efeff0"></path><path d="M960 321L960 296L888.3 370Z" fill="#fafafa" stroke="#fafafa"></path><path d="M960 296L960 210L836.3 269Z" fill="#f6f6f6" stroke="#f6f6f6"></path><path d="M884.3 115L960 56L820.3 0Z" fill="#f6f6f6" stroke="#f6f6f6"></path><path d="M960 540L960 456L847.3 449Z" fill="#ededee" stroke="#ededee"></path><path d="M822.3 540L960 540L847.3 449Z" fill="#f2f2f3" stroke="#f2f2f3"></path><path d="M960 210L960 56L884.3 115Z" fill="#fbfbfb" stroke="#fbfbfb"></path><path d="M960 56L960 0L820.3 0Z" fill="#ffffff" stroke="#ffffff"></path></g></svg>